<svg width="2236" height="187" viewBox="0 0 2236 187" fill="none" xmlns="http://www.w3.org/2000/svg">
<path d="M0.272728 0.818176H93.3636V24.0909H23.5455V93.9091H93.3636V140.455H70.0909V117.182H23.5455V187H0.272728V0.818176ZM93.3636 24.0909H116.636V93.9091H93.3636V24.0909ZM93.3636 140.455H116.636V187H93.3636V140.455ZM186.545 47.3636H256.364V70.6364H186.545V47.3636ZM163.273 70.6364H186.545V93.9091H256.364V70.6364H279.636V117.182H186.545V163.727H163.273V70.6364ZM186.545 163.727H256.364V187H186.545V163.727ZM256.364 140.455H279.636V163.727H256.364V140.455ZM419.364 93.9091V117.182H349.545V93.9091H419.364ZM489.273 0.818176H582.364V24.0909H512.545V93.9091H582.364V140.455H559.091V117.182H512.545V187H489.273V0.818176ZM582.364 24.0909H605.636V93.9091H582.364V24.0909ZM582.364 140.455H605.636V187H582.364V140.455ZM675.545 47.3636H745.364V70.6364H675.545V47.3636ZM652.273 70.6364H675.545V93.9091H745.364V70.6364H768.636V117.182H675.545V163.727H652.273V70.6364ZM675.545 163.727H745.364V187H675.545V163.727ZM745.364 140.455H768.636V163.727H745.364V140.455ZM815.273 47.3636H838.545V117.182H815.273V47.3636ZM908.364 47.3636H931.636V117.182H908.364V47.3636ZM861.818 163.727H838.545V117.182H861.818V163.727ZM861.818 163.727H885.091V187H861.818V163.727ZM885.091 117.182H908.364V163.727H885.091V117.182ZM1001.55 47.3636H1071.36V70.6364H1001.55V47.3636ZM978.273 70.6364H1001.55V93.9091H1071.36V70.6364H1094.64V117.182H1001.55V163.727H978.273V70.6364ZM1001.55 163.727H1071.36V187H1001.55V163.727ZM1071.36 140.455H1094.64V163.727H1071.36V140.455ZM1187.82 47.3636V70.6364H1211.09V93.9091H1187.82V163.727H1234.36V187H1141.27V163.727H1164.55V70.6364H1141.27V47.3636H1187.82ZM1257.64 47.3636V70.6364H1211.09V47.3636H1257.64ZM1397.36 163.727V187H1327.55V163.727H1397.36ZM1327.55 163.727H1304.27V140.455H1327.55V163.727ZM1397.36 47.3636V70.6364H1327.55V47.3636H1397.36ZM1304.27 70.6364H1327.55V93.9091H1304.27V70.6364ZM1327.55 93.9091H1397.36V117.182H1327.55V93.9091ZM1397.36 117.182H1420.64V163.727H1397.36V117.182ZM1397.36 70.6364H1420.64V93.9091H1397.36V70.6364ZM1490.55 47.3636H1560.36V70.6364H1490.55V47.3636ZM1467.27 70.6364H1490.55V93.9091H1560.36V70.6364H1583.64V117.182H1490.55V163.727H1467.27V70.6364ZM1490.55 163.727H1560.36V187H1490.55V163.727ZM1560.36 140.455H1583.64V163.727H1560.36V140.455ZM1723.36 0.818176H1746.64V187H1723.36V163.727H1700.09V140.455H1723.36V93.9091H1700.09V70.6364H1723.36V0.818176ZM1700.09 163.727V187H1653.55V163.727H1700.09ZM1653.55 163.727H1630.27V70.6364H1653.55V163.727ZM1700.09 70.6364H1653.55V47.3636H1700.09V70.6364ZM1886.36 93.9091V117.182H1816.55V93.9091H1886.36ZM1956.27 0.818176H1979.55V163.727H1956.27V0.818176ZM1979.55 163.727H2049.36V187H1979.55V163.727ZM2049.36 0.818176H2072.64V163.727H2049.36V0.818176ZM2165.82 163.727V24.0909H2119.27V0.818176H2235.64V24.0909H2189.09V163.727H2235.64V187H2119.27V163.727H2165.82Z" fill="black"/>
</svg>
